<?xml version="1.0" standalone="no"?>
<!DOCTYPE svg PUBLIC "-//W3C//DTD SVG 1.1//EN" "http://www.w3.org/Graphics/SVG/1.1/DTD/svg11.dtd" >
<!--
2013-9-30: Created.
-->
<svg>
<metadata>
Created by iconfont
</metadata>
<defs>

<font id="iconfont" horiz-adv-x="1024" >
  <font-face
    font-family="iconfont"
    font-weight="500"
    font-stretch="normal"
    units-per-em="1024"
    ascent="896"
    descent="-128"
  />
    <missing-glyph />
    
    <glyph glyph-name="yanjing" unicode="&#58907;" d="M10.87872 326.84416c0 0 440.66432 587.11936 990.08128 0C451.54432-232.73984 10.87872 326.84416 10.87872 326.84416L10.87872 326.84416zM505.92 467.96032c-74.57408 0-134.98624-60.41216-134.98624-134.98496 0-74.57408 60.41216-134.98624 134.98624-134.98624 74.5728 0 134.98496 60.41216 134.98496 134.98624C640.90496 407.54816 580.4928 467.96032 505.92 467.96032L505.92 467.96032z"  horiz-adv-x="1024" />

    
    <glyph glyph-name="552cc62440096" unicode="&#58906;" d="M768.704 192.384c-35.648 0-67.904-14.72-91.136-38.304l-309.152 171.712c9.056 17.568 14.688 37.184 14.688 58.272 0 12.576-2.368 24.48-5.76 35.936l304.608 189.152c22.688-20.416 52.384-33.184 85.216-33.184 70.592 0 128 57.408 128 128s-57.408 128-128 128-128-57.408-128-128c0-14.56 2.976-28.352 7.456-41.408l-301.824-187.392c-23.136 22.784-54.784 36.928-89.728 36.928-70.592 0-128-57.408-128-128 0-70.592 57.408-128 128-128 25.664 0 49.504 7.744 69.568 20.8l321.216-178.4c-3.04-10.944-5.184-22.208-5.184-34.08 0-70.592 57.408-128 128-128s128 57.408 128 128S839.328 192.384 768.704 192.384zM767.2 767.968c35.296 0 64-28.704 64-64s-28.704-64-64-64-64 28.704-64 64S731.904 767.968 767.2 767.968zM191.136 384.064c0 35.296 28.704 64 64 64s64-28.704 64-64c0-35.296-28.704-64-64-64S191.136 348.768 191.136 384.064zM768.704 0.384c-35.296 0-64 28.704-64 64s28.704 64 64 64 64-28.704 64-64S804 0.384 768.704 0.384z"  horiz-adv-x="1024" />

    
    <glyph glyph-name="biaoqian" unicode="&#59419;" d="M928 293.980618C928 312.439315 921.72983 328.313798 908.820656 342.34241L531.135085 719.638209C517.857075 732.928472 499.415398 744.372865 477.285386 753.971389 454.417702 763.569912 434.131856 768 415.690179 768L195.865375 767.999999C177.423697 767.999999 161.563854 760.985694 148.285846 747.695431 135.007837 734.405168 128 718.530687 128 700.071988L128 480.78265C128 462.323949 132.426003 441.281034 142.015676 419.130595 151.605349 396.241808 162.301521 378.521456 176.317197 365.231194L554.002765-12.802954C567.280774-26.093216 583.140618-32 601.582294-32 620.023974-32 635.883818-25.724042 649.899494-12.802954L908.820656 246.357174C920.992163 259.647437 928 275.52192 928 293.980618L928 293.980618 928 293.980618 928 293.980618ZM344.505302 550.556528C331.227293 537.266266 315.367451 530.990307 296.925772 530.990307 278.484094 530.990307 262.624251 537.266266 249.346243 550.556528 236.068235 563.846794 229.798064 579.721273 229.798064 598.179972 229.798064 616.638671 236.068235 632.513151 249.346243 645.803414 262.624251 659.093677 278.484094 665.369635 296.925772 665.369635 315.367451 665.369635 331.227293 659.093677 344.505302 645.803414 357.783312 632.513151 363.684646 616.638671 363.684646 598.179972 364.791149 579.352099 357.783312 563.846794 344.505302 550.556528L344.505302 550.556528 344.505302 550.556528 344.505302 550.556528Z"  horiz-adv-x="1024" />

    
    <glyph glyph-name="bao" unicode="&#58942;" d="M699.709183 612.60634c54.649468 0.219802 167.986038 9.013277 197.40169-14.00012 23.586002-18.453558 9.39128-80.290687 16.800144-114.800983 0-10.732492 0-21.467784 0-32.200276 1.869016-8.712275-0.844207-23.139398 1.400012-33.600288 8.565273-39.925542-1.584814-90.264373 7.00006-130.201115 2.153218-10.014286-0.376603-23.934605 1.400012-32.200276 4.70264-21.880787-1.526013-45.669791 2.800024-65.800563 4.68864-21.820587-1.533013-45.622191 2.800024-65.800563 0-10.732492 0-21.467784 0-32.200276 3.613431-16.910745 6.641657-73.251427-1.400012-85.400731-6.913259-10.445489-22.640994-19.006563-36.400312-22.400192-51.794843 0-103.606487 0-155.40133 0-201.114522 0-402.290644 0-603.405165 0-15.716535 3.928434-33.482687 14.088321-39.200336 28.00024-5.255645 12.789109-0.729406 38.58853 0 51.800443 1.722015 31.174067-2.024417 65.006756 4.200036 93.800803 2.163019 10.010086-0.386403 23.934605 1.400012 32.200276 0.466204 21.931188 0.933808 43.869376 1.400012 65.800563 4.370837 20.118172-1.948817 43.939376 2.800024 65.800563 1.794815 8.265671-0.772807 22.19439 1.400012 32.200276 8.663274 39.886341-1.615614 90.311973 7.00006 130.201115 0 9.800084 0 19.600168 0 29.400252 1.544213 27.592836-0.467604 65.897164 12.600108 82.600707 12.89971 16.487941 40.205544 16.800144 70.000599 16.800144 43.396171 0 86.804943 0 130.201115 0-0.320603 32.435478-4.832841 84.968127 1.400012 113.400971 0.466204 7.466264 0.933808 14.933928 1.400012 22.400192 18.050355 68.104983 55.276673 107.641321 116.200995 133.001139 17.794152 7.407463 62.154932 19.341166 92.400791 12.600108 10.787092-2.403821 22.911196-3.48743 33.600288-7.00006 26.145224-8.591874 48.598616-22.780995 68.600587-37.800324 11.344297-8.517673 19.754169-21.795387 28.00024-33.600288 13.545116-19.392966 23.801604-40.471546 30.800264-67.200575 0.466204-7.466264 0.933808-14.933928 1.400012-22.400192C704.572825 697.050863 699.781984 645.515022 699.709183 612.60634zM372.106378 612.60634c92.858595 0 185.74379 0 278.602385 0 0 28.463644 0 56.937087 0 85.400731-0.466204 13.99872-0.933808 28.00164-1.400012 42.00036-6.171253 23.087598-17.194947 39.620339-29.400252 56.000479-4.296637 5.768049-8.342671 12.563708-14.00012 16.800144-15.15373 11.348497-32.401877 21.05058-51.800443 28.00024-14.481724 5.187044-39.595139 8.253071-57.400491 4.200036-12.468507-2.837824-21.382383-1.617014-32.200276-5.600048-44.489581-16.38434-76.877458-51.125638-89.600767-99.400851C366.790533 709.216967 371.929977 649.442055 372.106378 612.60634zM162.104581 563.605921c-7.466264-176.850914-14.933928-353.753628-22.400192-530.604542 18.417158-6.046652 50.005628-1.400012 71.400611-1.400012 51.794843 0 103.606487 0 155.40133 0 172.184674 0 344.419748 0 516.604422 0 1.19001 3.427229 1.454612 8.657674 1.400012 14.00012-4.67464 7.684666 0.789607 23.447401-1.400012 33.600288-4.335837 20.104172-3.046426 47.84541-4.200036 68.600587 0 9.800084 0 19.600168 0 29.400252-6.546456 30.34946 0.939408 67.582779-5.600048 98.000839 0 10.732492 0 21.467784 0 32.200276-4.335837 20.104172-3.046426 47.84541-4.200036 68.600587 0 9.800084 0 19.600168 0 29.400252-4.250436 19.706569 1.815816 42.999968-2.800024 64.400551-5.752649 26.675828-4.095035 64.413151-4.200036 93.800803-50.551633 5.730249-109.322736 1.416812-162.40139 1.400012 0-20.531176 0-41.069352 0-61.600527 13.697717-4.446438 28.948048-26.84383 22.400192-50.400431-5.693849-20.486375-30.294859-42.949568-60.200515-33.600288-18.940762 5.920651-43.552973 29.984057-32.200276 60.200515 3.047826 8.113069 10.610691 17.082946 16.800144 22.400192 1.400012 0.466204 2.800024 0.933808 4.200036 1.400012 0 20.531176 0 41.069352 0 61.600527-92.858595 0-185.74379 0-278.602385 0 0-20.531176 0-41.069352 0-61.600527 49.09562-24.224407 11.866502-107.221318-46.200396-81.200695-16.847744 7.550265-35.847307 39.434138-21.00018 64.400551 3.49583 5.87865 18.324757 15.582133 19.600168 18.200156 0 20.064972 0 40.135544 0 60.200515C271.486117 565.134734 212.586213 569.42297 162.104581 563.605921zM341.306115 485.205249c-1.502213-1.052809-1.324411-0.842807-4.200036-1.400012-11.074095-13.601116-13.946919-12.142304-8.400072-32.200276 7.784067-5.010643 11.316297-8.461672 25.200216-8.400072 3.48743 3.024026 10.021286 4.557039 12.600108 8.400072C378.672435 469.733717 362.677298 485.906655 341.306115 485.205249zM668.908919 485.205249c-5.573448-4.803441-23.644802-13.718717-14.00012-28.00024 3.099627-10.46649 12.538507-14.355723 26.600228-14.00012 9.056678 7.224062 16.664343 8.573673 16.800144 25.200216C690.0659 479.085797 688.88429 485.559452 668.908919 485.205249z"  horiz-adv-x="1024" />

    
    <glyph glyph-name="1" unicode="&#58625;" d="M749.398-53.535h-147.147v312.286c0 16.87-4.955 39.034-20.025 39.034h-140.208c-15.065 0-20.030-22.165-20.030-39.034v-312.286h-147.378c-66.525 0-113.001 41.738-113.001 97.594l-0 292.764-21.121 0.093c-60.57 0-81.020 25.116-87.721 40.1-6.369 14.257-11.329 44.093 27.096 83.735l329.228 339.823c27.322 28.19 63.868 43.707 102.903 43.707 39.045 0 75.581-15.518 102.904-43.707l329.238-339.839c38.414-39.613 33.455-69.463 27.086-83.7-6.703-15.003-27.192-40.16-89.101-40.16l-19.484-0.053v-292.764c-0-54.899-47.854-97.594-113.237-97.594v0zM642.311-14.496h107.091c43.53 0 73.172 24.809 73.172 58.55l0 331.803 58.314 0.017c34.207 0.034 49.904 8.999 53.339 16.659 4.035 9.036-3.434 24.934-19.49 41.494l-329.248 339.824c-19.606 20.241-45.708 31.397-73.495 31.397-27.772 0-53.878-11.157-73.506-31.397l-329.226-339.8c-16.061-16.586-23.535-32.489-19.5-41.519 3.429-7.661 19.126-16.626 52.091-16.626l59.819-0.050v-331.803c0-33.743 29.393-58.55 72.939-58.55h107.323v273.248c0 40.18 19.121 78.072 60.085 78.072h140.208c40.96 0 60.086-37.892 60.086-78.072l-0-273.248h-0.001zM642.311-14.496z"  horiz-adv-x="1024" />

    
    <glyph glyph-name="shezhi" unicode="&#58897;" d="M513.130243 764.891832c-212.485651 0-386.543046-171.796909-386.543047-386.543046S298.384106-8.19426 513.130243-8.19426s386.543046 171.796909 386.543046 386.543046S725.615894 764.891832 513.130243 764.891832z m0-556.07947c-94.940397 0-169.536424 76.856512-169.536424 169.536424s76.856512 169.536424 169.536424 169.536424 169.536424-76.856512 169.536424-169.536424-76.856512-169.536424-169.536424-169.536424zM994.613687 500.415011l-221.527594-137.889625c-15.8234-9.041943-33.907285-4.520971-45.209713 9.041943L610.331126 559.187638c-9.041943 15.8234-4.520971 33.907285 9.041942 45.209713l221.527594 137.889625c15.8234 9.041943 33.907285 4.520971 45.209713-9.041943l117.545254-189.880795c11.302428-15.8234 6.781457-33.907285-9.041942-42.949227zM404.626932 159.081678l-221.527594-137.889625c-15.8234-9.041943-33.907285-4.520971-45.209713 9.041943L20.344371 217.854305c-9.041943 15.8234-4.520971 33.907285 9.041942 45.209713l221.527594 137.889624c15.8234 9.041943 33.907285 4.520971 45.209713-9.041942l117.545254-189.880795c9.041943-13.562914 4.520971-33.907285-9.041942-42.949227zM259.95585 362.525386L31.646799 491.373068C15.8234 500.415011 11.302428 520.759382 20.344371 534.322296l108.503311 194.401766c9.041943 15.8234 29.386313 20.344371 42.949227 11.302428l228.309051-128.847682c15.8234-9.041943 20.344371-29.386313 11.302429-42.949227l-108.503312-194.401766c-9.041943-13.562914-29.386313-20.344371-42.949227-11.302429zM852.203091 14.410596l-228.309051 128.847682c-15.8234 9.041943-20.344371 29.386313-11.302429 42.949228l108.503312 194.401766c9.041943 15.8234 29.386313 20.344371 42.949227 11.302428L992.353201 263.064018c15.8234-9.041943 20.344371-29.386313 11.302428-42.949228l-108.503311-194.401766c-9.041943-13.562914-27.125828-18.083885-42.949227-11.302428zM368.459161 593.094923l2.260486 262.216335c0 18.083885 13.562914 31.646799 31.646799 31.646799l223.788079-2.260485c18.083885 0 31.646799-13.562914 31.6468-31.646799L655.540839 590.834437c0-18.083885-13.562914-31.646799-31.646799-31.646799l-223.78808 2.260486c-18.083885 0-31.646799 15.8234-31.646799 31.646799zM368.459161-89.571744l2.260486 262.216336c0 18.083885 13.562914 31.646799 31.646799 31.646799l223.788079-2.260486c18.083885 0 31.646799-13.562914 31.6468-31.646799L655.540839-91.83223c0-18.083885-13.562914-31.646799-31.646799-31.646799l-223.78808 2.260486c-18.083885 0-31.646799 15.8234-31.646799 31.646799z"  horiz-adv-x="1024" />

    
    <glyph glyph-name="pinglun" unicode="&#58977;" d="M576.901368-127.811573a621.810512 621.810512 0 0 0-381.188687 130.580208A485.954336 485.954336 0 0 0 16.895052 263.92905a448.645705 448.645705 0 0 0 71.602423 389.479493A554.918775 554.918775 0 0 0 349.846317 852.387907 645.740795 645.740795 0 0 0 635.879152 893.841941a614.838697 614.838697 0 0 0 339.92308-128.507506 488.027038 488.027038 0 0 0 180.890331-270.581786A448.834133 448.834133 0 0 0 1104.498165 147.669327a18.842743 18.842743 0 0 1-1.884274-16.204759c21.669154-68.587584 42.961454-137.175167 64.630608-205.762751a44.6573 44.6573 0 0 0 1.695847-28.264114 36.554921 36.554921 0 0 0-46.91843-22.988146l-173.353234 54.078671c-17.523751 5.464395-35.047502 11.117218-52.759679 16.204759a16.770041 16.770041 0 0 1-11.305646-0.942137 662.699263 662.699263 0 0 0-307.513562-71.602423z m501.216957 92.517867l-2.637984 9.232944q-24.683993 79.516375-49.556413 158.844322a37.685486 37.685486 0 0 0 4.710686 35.424356c2.072702 2.826411 3.956976 5.84125 5.652822 8.85609 72.921415 120.593554 82.342786 244.955656 22.799719 373.840016A441.673891 441.673891 0 0 1 859.730937 754.217217a570.935106 570.935106 0 0 1-425.092277 48.802703 491.984014 491.984014 0 0 1-272.466061-173.353233 378.173847 378.173847 0 0 1-72.167705-354.243564A417.932035 417.932035 0 0 1 249.037643 53.455613a542.670992 542.670992 0 0 1 291.685658-106.084642 569.427687 569.427687 0 0 1 324.095176 68.776011 44.092018 44.092018 0 0 0 37.685486 3.956976c27.887259-9.044517 56.528228-17.523751 83.661778-26.37984l93.271576-29.206251z"  horiz-adv-x="1171" />

    
    <glyph glyph-name="xing" unicode="&#58629;" d="M539.690667 135.466667c-15.296 8.885333-40.128 8.853333-55.381334 0l-175.349333-101.856c-40.778667-23.68-65.258667-5.664-54.666667 40.277333l44.458667 192.970667c3.957333 17.205333-3.690667 40.501333-17.130667 52.053333L128.682667 450.325333c-35.712 30.698667-26.624 59.029333 20.416 63.296l203.626666 18.474667c17.621333 1.6 37.717333 16.085333 44.832 32.234667l80.064 181.866666c18.986667 43.146667 49.738667 43.210667 68.757334 0l80.064-181.866666c7.136-16.202667 27.104-30.613333 44.832-32.234667l203.626666-18.474667c46.997333-4.266667 56.149333-32.586667 20.416-63.296L742.378667 318.901333c-13.429333-11.530667-21.077333-34.88-17.130667-52.042666l44.458667-192.970667c10.581333-45.930667-13.962667-63.925333-54.666667-40.277333l-175.36 101.866666z"  horiz-adv-x="1024" />

    
    <glyph glyph-name="ren1" unicode="&#58628;" d="M852.412 160.50699999999995l-180.797 70.459s-34.481 13.386-47.875 26.55c-8.609 8.463-7.987 28.427-0.368 53.928 7.618 25.502 100.303 129.139 100.303 223.281C723.675 680.117 628.09 798 510.191 798 392.3 798 296.724 680.117 296.724 534.717c0-90.169 82.592-197.664 92.783-217.202 10.199-19.538 7.716-49.316-0.336-58.336-12.092-13.549-56.271-27.132-56.271-27.132l-162.988-72.638C131.835 145.72799999999995 102 109.81500000000005 102 69.29700000000003v-53.234c0-44.22 35.914-37.263 80.052-37.263h658.219c44.147 0 80.061-6.958 80.061 37.263v53.234c0 40.526-29.835 77.537-67.92 91.21m0 0"  horiz-adv-x="1024" />

    
    <glyph glyph-name="message" unicode="&#58921;" d="M512-127.99936000000002a135.935915 135.935915 0 0 1 136.255915 136.959914H375.680085C375.680085-67.00739799999997 436.672047-127.99936000000002 512-127.99936000000002zM601.535944 790.208066c125.887921-44.095972 229.055857-178.431888 229.055857-337.407789v-125.247922s0-180.415887 44.095972-182.399886h1.343999c25.343984 0 45.439972-20.095987 45.439972-45.375971 0-25.343984-20.095987-45.439972-45.439972-45.439972H147.968228a45.439972 45.439972 0 1 0 1.279999 90.815943c44.095972 1.343999 44.095972 182.399886 44.095972 182.399886V452.800277c0 158.975901 103.103936 293.951816 229.055857 337.407789-1.279999 4.543997-1.279999 9.791994-1.279999 14.975991C421.120057 855.104026 462.016031 896 512 896s90.879943-40.895974 90.879943-90.815943c0-5.183997 0-10.431993-1.343999-14.975991z m0 0"  horiz-adv-x="1024" />

    
    <glyph glyph-name="sousuo" unicode="&#58626;" d="M732.16 252.58666700000003l-46.08 0-17.066667 17.066667c58.026667 64.853333 93.866667 151.893333 93.866667 245.76C761.173333 727.04 590.506667 896 380.586667 896 168.96 896 0 727.04 0 515.413333c0-209.92 168.96-380.586667 380.586667-380.586667 93.866667 0 180.906667 35.84 245.76 93.866667l17.066667-17.066667 0-46.08L936.96-128l87.04 87.04L732.16 252.58666700000003zM380.586667 252.58666700000003c-146.773333 0-262.826667 117.76-262.826667 262.826667 0 146.773333 117.76 262.826667 262.826667 262.826667 146.773333 0 262.826667-117.76 262.826667-262.826667C643.413333 368.64 527.36 252.58666700000003 380.586667 252.58666700000003z"  horiz-adv-x="1024" />

    
    <glyph glyph-name="shu_03" unicode="&#58637;" d="M273.7 797.2v-619.9c0-4.5-3.6-8.1-8.1-8.1h-82.9v628h91zM185.8 72.60000000000002h-36.1V755.1c0 42.3 34.4 76.7 76.7 76.7h571.2c42.3 0 76.7-34.4 76.7-76.7V173h-36.1V755.1c0 22.4-18.2 40.6-40.6 40.6H226.4c-22.4 0-40.6-18.2-40.6-40.6v-682.5zM873.5-60.799999999999955H284.6c-74.4 0-134.9 60.5-134.9 134.9S210.2 209 284.6 209h559.2v-36H284.6c-54.5 0-98.8-44.3-98.8-98.8s44.3-98.8 98.8-98.8h588.9v-36.2zM246.7 85.5h626.9v-24.1H246.7zM480.4 684.5H775v-24.1H480.4zM480.4 577.7H775v-24.1H480.4z"  horiz-adv-x="1024" />

    
    <glyph glyph-name="yuanquanbianji" unicode="&#59153;" d="M512 896C228.430769 896 0 667.569231 0 384s228.430769-512 512-512 512 228.430769 512 512S795.569231 896 512 896z m0-984.615385C252.061538-88.615385 39.384615 124.061538 39.384615 384S252.061538 856.615385 512 856.615385s472.615385-212.676923 472.615385-472.615385-212.676923-472.615385-472.615385-472.615385zM704.984615 191.015385H319.015385V576.984615h259.938461V620.307692H275.692308v-472.615384h472.615384v303.261538h-43.323077zM442.368 346.427077l275.692308 275.692308 30.64123-30.601847-275.692307-275.692307z"  horiz-adv-x="1024" />

    
    <glyph glyph-name="jia" unicode="&#58889;" d="M512-128C229.222-128 0 101.222 0 384S229.222 896 512 896s512-229.222 512-512-229.222-512-512-512z m204.8 537.6H537.6V588.8h-51.2v-179.2H307.2v-51.2h179.2v-179.2h51.2V358.4h179.2v51.2z"  horiz-adv-x="1024" />

    
    <glyph glyph-name="sousuo1" unicode="&#58913;" d="M1006.33384-57.156912l-283.67826 283.729244a418.430531 418.430531 0 0 1 93.046877 261.550947c0 226.116657-181.709079 407.876721-407.825736 407.876721s-407.876721-181.760064-407.876721-407.876721c0-226.116657 181.760064-407.876721 407.876721-407.876721 97.584505 0 186.144738 35.43429 257.115288 88.611218l283.729244-283.678259c17.742637-17.793622 39.869949-17.793622 57.612587 0 17.793622 17.742637 17.793622 44.356593 0 57.663571zM84.226543 488.123279a327.321068 327.321068 0 0 0 328.085837 328.085837 327.423038 327.423038 0 0 0 328.085838-328.085837 327.321068 327.321068 0 0 0-328.085838-328.085837c-181.760064 0-328.085837 150.761433-328.085837 328.085837z m0 0"  horiz-adv-x="1024" />

    
    <glyph glyph-name="drxx66" unicode="&#58627;" d="M629.972756 730.436556a73.669839 73.669839 0 0 1 13.244016-18.210522 27.315783 27.315783 0 0 1 19.452148-7.449759h154.375561v16.55502a64.150702 64.150702 0 0 1-2.069377 15.313394 54.631566 54.631566 0 0 1-11.174639 19.866024 271.088452 271.088452 0 0 1-25.660281 28.557409c-11.174638 11.174638-26.074156 25.246405-45.112429 41.38755S701.159342 854.599206 690.812454 862.876716s-21.521526 16.141144-29.38516 21.521526a72.842088 72.842088 0 0 1-20.693775 9.519136 82.7751 82.7751 0 0 1-17.796647 0h-2.069377V771.824106a65.392329 65.392329 0 0 1 2.897128-17.796646 77.808594 77.808594 0 0 1 7.449759-20.693775zM663.496671 640.625573a91.880361 91.880361 0 0 0-50.078935 12.83014 109.263132 109.263132 0 0 0-34.351667 31.454538 140.303794 140.303794 0 0 0-19.452148 41.38755 162.239196 162.239196 0 0 0-6.208133 41.38755V895.986756H152.774305a88.983232 88.983232 0 0 1-47.595683-12.83014 168.447328 168.447328 0 0 1-39.318172-31.454538 153.54781 153.54781 0 0 1-27.315783-41.38755A115.471264 115.471264 0 0 1 28.611655 764.374347V68.23575700000004a97.260742 97.260742 0 0 1 13.657891-49.251184 179.208091 179.208091 0 0 1 33.937791-41.38755 191.624356 191.624356 0 0 1 44.284679-29.385161 102.641124 102.641124 0 0 1 41.38755-11.174638h289.712849l203.626746 206.937749a59.598072 59.598072 0 0 0-38.490421-12.416265H224.788642a62.4952 62.4952 0 0 0-45.940181 18.624398A59.184196 59.184196 0 0 0 159.810188 192.39840700000002a60.839698 60.839698 0 0 0 19.038273 45.526305 61.253574 61.253574 0 0 0 45.940181 19.038273h393.5956a63.736827 63.736827 0 0 0 46.767931-19.038273 61.253574 61.253574 0 0 0 19.452149-45.526305 60.011947 60.011947 0 0 0-11.588514-35.593293l144.028673 145.2703V640.625573z m0-237.150661a66.22008 66.22008 0 0 0-46.767931-18.210522H224.788642a63.736827 63.736827 0 0 0-45.940181 18.210522 60.011947 60.011947 0 0 0-19.038273 45.112429 61.667449 61.667449 0 0 0 19.038273 45.526305 62.4952 62.4952 0 0 0 45.940181 18.624397h393.5956a64.978453 64.978453 0 0 0 46.767931-18.624397 61.253574 61.253574 0 0 0 19.452149-45.526305 60.425823 60.425823 0 0 0-19.452149-45.112429zM993.355444 204.400796a86.913855 86.913855 0 0 1-4.138755 20.693775 87.32773 87.32773 0 0 1-18.624397 26.901908 73.669839 73.669839 0 0 1-22.349277 17.796646 56.700943 56.700943 0 0 1-24.418655 6.622008 33.11004 33.11004 0 0 1-26.901907-9.519136l-13.244016-11.174639a168.447328 168.447328 0 0 0-14.071767-12.416265l88.983232-86.086104a49.251184 49.251184 0 0 1 7.449759 6.208133l7.449759 7.863634 9.519137 9.519137a30.212911 30.212911 0 0 1 10.346887 23.590903zM732.200004 109.62330699999995l-37.66267-37.248795-34.765542-34.351666-26.074157-25.660281-13.657891-13.244016a77.808594 77.808594 0 0 1-16.968896-23.177028 160.997569 160.997569 0 0 1-5.794257-15.727269l-7.863634-24.004779-7.449759-24.83253c-2.069377-8.27751-3.311004-14.485642-4.138755-18.210522a21.935401 21.935401 0 0 1 2.069377-17.382771c2.897128-3.311004 8.27751-4.55263 16.968896-3.311004a190.38273 190.38273 0 0 1 18.624397 4.55263 228.873151 228.873151 0 0 1 26.488032 7.035884c9.105261 2.483253 17.796646 5.794257 26.901908 8.691385L690.812454-97.31444299999998l12.416265 7.449759 11.588514 8.691386 11.174639 11.174638 24.418654 24.418655 34.765542 33.937791 37.66267 36.834919 101.813373 98.916244-88.155481 86.086104L732.200004 109.62330699999995z"  horiz-adv-x="1024" />

    
    <glyph glyph-name="xiala" unicode="&#59145;" d="M755.342 462.11L537.778 224.2a34.238 34.238 0 0 0-25.718-11.637A34.238 34.238 0 0 0 486.34 224.2L268.777 462.11c-10.621 11.218-13.903 27.568-8.414 42.009s18.737 24.525 34.133 25.897h434.949c15.455-1.313 28.761-11.337 34.251-25.838 5.55-14.5 2.268-30.79-8.354-42.068z"  horiz-adv-x="1024" />

    
    <glyph glyph-name="zan" unicode="&#58961;" d="M153.792 469.376a24.32 24.32 0 0 1-24.32-24.32v-389.12c0-13.44 10.88-24.32 24.32-24.32h64.192v437.76H153.792z m104.768-518.848H153.792a105.6 105.6 0 0 0-105.472 105.408v389.12a105.6 105.6 0 0 0 105.472 105.472H258.56c22.4 0 40.512-18.176 40.512-40.576v-518.912c0-22.4-18.176-40.512-40.512-40.512zM676.352 730.24h0.128-0.128z m-262.4-698.624h358.272c19.072 0 41.856 23.296 56.768 57.92 31.36 73.152 64.64 180.8 71.168 230.4 7.296 55.36 12.224 106.88-7.04 128.896-12.032 13.632-37.312 20.544-75.264 20.544h-151.296a40.512 40.512 0 0 0-40 47.296c12.736 75.648 16.896 141.376 11.968 190.08a37.312 37.312 0 0 0-0.192 3.648 43.648 43.648 0 0 1-1.216 9.6l-0.128 0.512a43.776 43.776 0 0 1-42.56 33.28 43.968 43.968 0 0 1-43.904-43.904c0-127.04-64.192-211.008-136.512-234.048v-444.224z m358.272-81.088h-398.72a40.576 40.576 0 0 0-40.64 40.512V509.952c0 22.4 18.176 40.576 40.576 40.576 57.408 0 96 82.368 96 159.36 0 68.992 56.064 125.056 124.992 125.056a124.8 124.8 0 0 0 124.992-121.792c4.352-45.312 2.432-99.84-5.76-162.624h104.192c63.168 0 107.776-15.808 136.192-48.192 45.12-51.456 34.816-129.92 26.56-193.024-7.552-57.472-42.176-170.368-77.12-251.776-28.8-67.008-77.888-107.008-131.264-107.008z"  horiz-adv-x="1092" />

    
    <glyph glyph-name="-circle" unicode="&#58651;" d="M91.733333 174.93333299999995c12.8-25.6 27.733333-51.2 44.8-72.533333L170.666667 125.866667c-14.933333 21.333333-29.866667 42.666667-42.666667 66.133333L91.733333 174.93333299999995zM283.733333 746.666667l-21.333333 34.133333c-23.466667-14.933333-46.933333-32-68.266667-53.333333l27.733333-29.866667C241.066667 716.8 262.4 733.866667 283.733333 746.666667zM85.333333 343.46666700000003l-40.533333-4.266667c2.133333-27.733333 8.533333-57.6 17.066667-85.333333l38.4 10.666667C91.733333 290.133333 87.466667 317.866667 85.333333 343.46666700000003zM168.533333 640l-32 23.466667c-17.066667-23.466667-32-46.933333-44.8-72.533333L128 573.866667C138.666667 597.333333 153.6 618.666667 168.533333 640zM757.333333 782.933333c-23.466667 14.933333-51.2 27.733333-76.8 38.4l-14.933333-38.4c23.466667-8.533333 49.066667-21.333333 70.4-34.133333L757.333333 782.933333zM588.8 804.266667L597.333333 844.8C569.6 849.066667 539.733333 853.333333 512 853.333333c0 0 0 0 0 0l-2.133333 0L512 810.666667C537.6 810.666667 563.2 808.533333 588.8 804.266667zM196.266667 36.266666999999984c21.333333-19.2 44.8-36.266667 68.266667-51.2l21.333333 34.133333c-21.333333 12.8-42.666667 29.866667-64 46.933333L196.266667 36.266666999999984zM100.266667 499.2l-38.4 10.666667c-8.533333-27.733333-12.8-55.466667-14.933333-85.333333L85.333333 422.4C87.466667 448 91.733333 473.6 100.266667 499.2zM430.933333 804.266667l-8.533333 40.533333c-27.733333-6.4-55.466667-12.8-83.2-23.466667l14.933333-38.4C379.733333 791.466667 405.333333 800 430.933333 804.266667zM343.466667-53.33333300000004c27.733333-10.666667 55.466667-19.2 83.2-23.466667l6.4 40.533333c-25.6 4.266667-51.2 12.8-76.8 21.333333L343.466667-53.33333300000004zM893.866667 194.133333l36.266667-17.066667c12.8 25.6 23.466667 53.333333 32 81.066667l-38.4 10.666667C915.2 241.06666700000005 906.666667 217.60000000000002 893.866667 194.133333zM800 68.26666699999998l27.733333-29.866667c21.333333 19.2 40.533333 40.533333 57.6 64L853.333333 125.866667C836.266667 106.66666699999996 819.2 85.33333300000004 800 68.26666699999998zM962.133333 512c-8.533333 27.733333-19.2 55.466667-32 81.066667l-36.266667-19.2c10.666667-23.466667 21.333333-49.066667 27.733333-72.533333L962.133333 512zM512-42.66666699999996l0-40.533333c29.866667 0 57.6 2.133333 85.333333 8.533333l-8.533333 40.533333C565.333333-40.53333299999997 537.6-42.66666699999996 512-42.66666699999996zM977.066667 426.666667l-40.533333-4.266667C938.666667 411.733333 938.666667 396.8 938.666667 384c0-12.8 0-25.6-2.133333-38.4l40.533333-4.266667c2.133333 14.933333 2.133333 27.733333 2.133333 42.666667C979.2 398.933333 979.2 413.866667 977.066667 426.666667zM851.2 642.133333l32 25.6c-17.066667 23.466667-36.266667 44.8-57.6 64l-27.733333-29.866667C819.2 682.666667 836.266667 663.466667 851.2 642.133333zM512 597.333333c-117.333333 0-213.333333-96-213.333333-213.333333 0-117.333333 96-213.333333 213.333333-213.333333s213.333333 96 213.333333 213.333333C725.333333 501.333333 629.333333 597.333333 512 597.333333zM512 213.33333300000004c-93.866667 0-170.666667 76.8-170.666667 170.666667s76.8 170.666667 170.666667 170.666667c93.866667 0 170.666667-76.8 170.666667-170.666667S605.866667 213.33333300000004 512 213.33333300000004zM665.6-14.933332999999948l14.933333-38.4c27.733333 10.666667 53.333333 23.466667 76.8 38.4l-21.333333 34.133333C714.666667 6.399999999999977 691.2-4.266666999999984 665.6-14.933332999999948z"  horiz-adv-x="1024" />

    
    <glyph glyph-name="yejianmoshi" unicode="&#58911;" d="M512 384m-512 0a512 512 0 1 1 1024 0 512 512 0 1 1-1024 0ZM479.632696-4.318609a388.808348 388.808348 0 0 0-319.087305 167.223652 25.956174 25.956174 0 0 0-1.469217 27.202783 24.887652 24.887652 0 0 0 23.641043 13.356522l6.233044-0.311652c1.958957 0 3.873391-0.222609 5.832348-0.222609a337.074087 337.074087 0 0 1 336.628869 336.62887 334.536348 334.536348 0 0 1-60.104348 191.75513 25.86713 25.86713 0 0 0-1.469217 27.202783 25.199304 25.199304 0 0 0 23.641044 13.356521 388.407652 388.407652 0 0 0-13.846261-776.592695z m-244.869566 157.42887A336.539826 336.539826 0 1 1 541.384348 714.885565a385.914435 385.914435 0 0 0 41.850435-175.326608 389.12 389.12 0 0 0-348.293566-386.448696z"  horiz-adv-x="1024" />

    


  </font>
</defs>
</svg>
